<?xml version="1.0" encoding="utf-8"?>
<!-- Generator: Adobe Illustrator 26.5.3, SVG Export Plug-In . SVG Version: 6.00 Build 0)  -->
<svg version="1.1" id="Capa_1" xmlns="http://www.w3.org/2000/svg" xmlns:xlink="http://www.w3.org/1999/xlink" x="0px" y="0px"
	 viewBox="0 0 65 65" style="enable-background:new 0 0 65 65;" xml:space="preserve">
<style type="text/css">
	.st0{fill:#028D7F;}
	.st1{fill:#474747;}
	.st2{fill:#385E59;}
	.st3{fill:#E5E5E5;}
</style>
<polygon class="st0" points="-1213.5,343.74 -1234.5,355.74 -1234.5,406.62 -1213.5,394.62 "/>
<path d="M-1259.14,280.74c0.52-0.01,1.04-0.04,1.56-0.04c15.91,0,31.83,0,47.74,0c0.47,0,0.95,0,1.5,0c0,3.42,0,6.76,0,10.23
	c-13.46,0-26.91,0-40.45,0c0,3.39,0,6.65,0,10.05c13.47,0,26.92,0,40.45,0c0,10.24,0,20.33,0,30.6c-0.5,0-1.01,0-1.51,0
	c-16.07,0-32.15,0-48.22,0c-0.36,0-0.72,0.03-1.07,0.04c0-3.44,0-6.88,0-10.32c0.12,0.01,0.24,0.04,0.35,0.04
	c13.06,0,26.13,0,39.19-0.01c0.35,0,0.69-0.04,1.04-0.07c0-3.39,0-6.67,0-10.05c-13.59,0-27.09,0-40.59,0
	C-1259.14,301.06-1259.14,290.9-1259.14,280.74z"/>
<text transform="matrix(1 0 0 1 -1222.769 340.9619)" style="font-family:'Dungeon-Regular'; font-size:12px;">s</text>
<rect x="-1232.5" y="382.5" width="38" height="3"/>
<polygon class="st0" points="-1259.34,362.7 -1238.34,350.7 -1238.34,401.58 -1259.34,413.58 "/>
<g>
	<text transform="matrix(1 0 0 1 56.2261 -71.2492)" class="st1" style="font-family:'BebasNeue'; font-size:36.4798px;">uperserveR</text>
	<g>
		<path class="st1" d="M13.36-108.47c0.4-0.01,0.81-0.03,1.21-0.03c12.39,0,24.79,0,37.18,0c0.37,0,0.74,0,1.17,0
			c0,2.66,0,5.26,0,7.97c-10.48,0-20.96,0-31.5,0c0,2.64,0,5.18,0,7.83c10.49,0,20.97,0,31.5,0c0,7.97,0,15.84,0,23.83
			c-0.39,0-0.78,0-1.17,0c-12.52,0-25.04,0-37.56,0c-0.28,0-0.56,0.02-0.84,0.03c0-2.68,0-5.36,0-8.04
			c0.09,0.01,0.18,0.03,0.28,0.03c10.17,0,20.35,0,30.52,0c0.27,0,0.54-0.03,0.81-0.05c0-2.64,0-5.2,0-7.83c-10.59,0-21.1,0-31.61,0
			C13.36-92.64,13.36-100.56,13.36-108.47z"/>
		<polygon class="st2" points="13.36,-68.84 -3,-59.5 36.57,-59.53 52.92,-68.88 		"/>
		<path d="M-3-99.12c0.4-0.01,0.81-0.03,1.21-0.03c12.39,0,24.79,0,37.18,0c0.37,0,0.74,0,1.17,0c0,2.66,0,5.26,0,7.97
			c-10.48,0-20.96,0-31.5,0c0,2.64,0,5.18,0,7.83c10.49,0,20.97,0,31.5,0c0,7.97,0,15.84,0,23.83c-0.39,0-0.78,0-1.17,0
			c-12.52,0-25.04,0-37.56,0c-0.28,0-0.56,0.02-0.84,0.03c0-2.68,0-5.36,0-8.04c0.09,0.01,0.18,0.03,0.28,0.03
			c10.17,0,20.35,0,30.52,0c0.27,0,0.54-0.03,0.81-0.05c0-2.64,0-5.2,0-7.83c-10.59,0-21.1,0-31.61,0C-3-83.3-3-91.21-3-99.12z"/>
		<polygon class="st0" points="13.36,-108.47 -3,-99.12 36.57,-99.16 52.92,-108.5 		"/>
	</g>
</g>
<g>
	<g>
		<g>
			<path class="st3" d="M61.52-204.79v19.7c0,1.82,0.8,2.48,2.08,2.48c1.28,0,2.08-0.66,2.08-2.48v-19.7h3.79v19.45
				c0,4.09-2.04,6.42-5.98,6.42c-3.94,0-5.98-2.33-5.98-6.42v-19.45H61.52z"/>
			<path class="st3" d="M84.1-198.48v3.32c0,4.09-1.97,6.31-5.98,6.31h-1.9v9.6H72.2v-25.54h5.91
				C82.13-204.79,84.1-202.56,84.1-198.48z M76.22-201.14v8.65h1.9c1.28,0,1.97-0.58,1.97-2.41v-3.83c0-1.82-0.69-2.41-1.97-2.41
				H76.22z"/>
			<path class="st3" d="M89.97-194.02h5.51v3.65h-5.51v7.48h6.93v3.65H85.96v-25.54H96.9v3.65h-6.93V-194.02z"/>
			<path class="st3" d="M107.77-179.25c-0.22-0.66-0.37-1.06-0.37-3.14v-4.01c0-2.37-0.8-3.25-2.63-3.25h-1.39v10.4h-4.01v-25.54
				h6.06c4.16,0,5.95,1.93,5.95,5.87v2.01c0,2.63-0.84,4.31-2.63,5.14v0.07c2.01,0.84,2.66,2.74,2.66,5.4v3.94
				c0,1.24,0.04,2.15,0.44,3.1H107.77z M103.4-201.14v7.84h1.57c1.5,0,2.41-0.66,2.41-2.7v-2.52c0-1.82-0.62-2.63-2.04-2.63H103.4z"
				/>
			<path class="st3" d="M119.45-205.08c3.9,0,5.91,2.33,5.91,6.42v0.8h-3.79v-1.06c0-1.82-0.73-2.52-2.01-2.52
				c-1.28,0-2.01,0.69-2.01,2.52c0,1.86,0.8,3.25,3.43,5.55c3.36,2.96,4.41,5.07,4.41,7.99c0,4.09-2.04,6.42-5.98,6.42
				s-5.98-2.33-5.98-6.42v-1.57h3.79v1.82c0,1.82,0.8,2.48,2.08,2.48c1.28,0,2.08-0.66,2.08-2.48c0-1.86-0.8-3.25-3.43-5.55
				c-3.36-2.96-4.42-5.07-4.42-7.99C113.54-202.74,115.54-205.08,119.45-205.08z"/>
			<path class="st3" d="M131.7-194.02h5.51v3.65h-5.51v7.48h6.93v3.65h-10.95v-25.54h10.95v3.65h-6.93V-194.02z"/>
			<path class="st3" d="M149.5-179.25c-0.22-0.66-0.37-1.06-0.37-3.14v-4.01c0-2.37-0.8-3.25-2.63-3.25h-1.39v10.4h-4.01v-25.54
				h6.06c4.16,0,5.95,1.93,5.95,5.87v2.01c0,2.63-0.84,4.31-2.63,5.14v0.07c2.01,0.84,2.66,2.74,2.66,5.4v3.94
				c0,1.24,0.04,2.15,0.44,3.1H149.5z M145.13-201.14v7.84h1.57c1.5,0,2.41-0.66,2.41-2.7v-2.52c0-1.82-0.62-2.63-2.04-2.63H145.13z
				"/>
			<path class="st3" d="M161.73-183.96h0.07l3.03-20.83h3.69l-3.94,25.54h-5.98l-3.94-25.54h4.05L161.73-183.96z"/>
			<path class="st3" d="M174.38-194.02h5.51v3.65h-5.51v7.48h6.93v3.65h-10.95v-25.54h10.95v3.65h-6.93V-194.02z"/>
			<path class="st3" d="M192.19-179.25c-0.22-0.66-0.37-1.06-0.37-3.14v-4.01c0-2.37-0.8-3.25-2.63-3.25h-1.39v10.4h-4.01v-25.54
				h6.06c4.16,0,5.95,1.93,5.95,5.87v2.01c0,2.63-0.84,4.31-2.63,5.14v0.07c2.01,0.84,2.66,2.74,2.66,5.4v3.94
				c0,1.24,0.04,2.15,0.44,3.1H192.19z M187.81-201.14v7.84h1.57c1.5,0,2.41-0.66,2.41-2.7v-2.52c0-1.82-0.62-2.63-2.04-2.63H187.81
				z"/>
		</g>
	</g>
	<g>
		<path class="st1" d="M13.36-216.47c0.4-0.01,0.81-0.03,1.21-0.03c12.39,0,24.79,0,37.18,0c0.37,0,0.74,0,1.17,0
			c0,2.66,0,5.26,0,7.97c-10.48,0-20.96,0-31.5,0c0,2.64,0,5.18,0,7.83c10.49,0,20.97,0,31.5,0c0,7.97,0,15.84,0,23.83
			c-0.39,0-0.78,0-1.17,0c-12.52,0-25.04,0-37.56,0c-0.28,0-0.56,0.02-0.84,0.03c0-2.68,0-5.36,0-8.04
			c0.09,0.01,0.18,0.03,0.28,0.03c10.17,0,20.35,0,30.52,0c0.27,0,0.54-0.03,0.81-0.05c0-2.64,0-5.2,0-7.83c-10.59,0-21.1,0-31.61,0
			C13.36-200.64,13.36-208.56,13.36-216.47z"/>
		<polygon class="st2" points="13.36,-176.84 -3,-167.5 36.57,-167.53 52.92,-176.88 		"/>
		<path class="st3" d="M-3-207.12c0.4-0.01,0.81-0.03,1.21-0.03c12.39,0,24.79,0,37.18,0c0.37,0,0.74,0,1.17,0c0,2.66,0,5.26,0,7.97
			c-10.48,0-20.96,0-31.5,0c0,2.64,0,5.18,0,7.83c10.49,0,20.97,0,31.5,0c0,7.97,0,15.84,0,23.83c-0.39,0-0.78,0-1.17,0
			c-12.52,0-25.04,0-37.56,0c-0.28,0-0.56,0.02-0.84,0.03c0-2.68,0-5.36,0-8.04c0.09,0.01,0.18,0.03,0.28,0.03
			c10.17,0,20.35,0,30.52,0c0.27,0,0.54-0.03,0.81-0.05c0-2.64,0-5.2,0-7.83c-10.59,0-21.1,0-31.61,0C-3-191.3-3-199.21-3-207.12z"
			/>
		<polygon class="st0" points="13.36,-216.47 -3,-207.12 36.57,-207.16 52.92,-216.5 		"/>
	</g>
</g>
<g>
	<g>
		<g>
			<path class="st3" d="M43.52-305.79v19.7c0,1.82,0.8,2.48,2.08,2.48c1.28,0,2.08-0.66,2.08-2.48v-19.7h3.79v19.45
				c0,4.09-2.04,6.42-5.98,6.42c-3.94,0-5.98-2.33-5.98-6.42v-19.45H43.52z"/>
			<path class="st3" d="M66.1-299.48v3.32c0,4.09-1.97,6.31-5.98,6.31h-1.9v9.6H54.2v-25.54h5.91
				C64.13-305.79,66.1-303.56,66.1-299.48z M58.22-302.14v8.65h1.9c1.28,0,1.97-0.58,1.97-2.41v-3.83c0-1.82-0.69-2.41-1.97-2.41
				H58.22z"/>
			<path class="st3" d="M71.97-295.02h5.51v3.65h-5.51v7.48h6.93v3.65H67.96v-25.54H78.9v3.65h-6.93V-295.02z"/>
			<path class="st3" d="M89.77-280.25c-0.22-0.66-0.37-1.06-0.37-3.14v-4.01c0-2.37-0.8-3.25-2.63-3.25H85.4v10.4h-4.01v-25.54h6.06
				c4.16,0,5.95,1.93,5.95,5.87v2.01c0,2.63-0.84,4.31-2.63,5.14v0.07c2.01,0.84,2.66,2.74,2.66,5.4v3.94c0,1.24,0.04,2.15,0.44,3.1
				H89.77z M85.4-302.14v7.84h1.57c1.5,0,2.41-0.66,2.41-2.7v-2.52c0-1.82-0.62-2.63-2.04-2.63H85.4z"/>
			<path class="st3" d="M101.45-306.08c3.9,0,5.91,2.33,5.91,6.42v0.8h-3.79v-1.06c0-1.82-0.73-2.52-2.01-2.52
				c-1.28,0-2.01,0.69-2.01,2.52c0,1.86,0.8,3.25,3.43,5.55c3.36,2.96,4.41,5.07,4.41,7.99c0,4.09-2.04,6.42-5.98,6.42
				s-5.98-2.33-5.98-6.42v-1.57h3.79v1.82c0,1.82,0.8,2.48,2.08,2.48c1.28,0,2.08-0.66,2.08-2.48c0-1.86-0.8-3.25-3.43-5.55
				c-3.36-2.96-4.42-5.07-4.42-7.99C95.54-303.74,97.54-306.08,101.45-306.08z"/>
			<path class="st3" d="M113.7-295.02h5.51v3.65h-5.51v7.48h6.93v3.65h-10.95v-25.54h10.95v3.65h-6.93V-295.02z"/>
			<path class="st3" d="M131.5-280.25c-0.22-0.66-0.37-1.06-0.37-3.14v-4.01c0-2.37-0.8-3.25-2.63-3.25h-1.39v10.4h-4.01v-25.54
				h6.06c4.16,0,5.95,1.93,5.95,5.87v2.01c0,2.63-0.84,4.31-2.63,5.14v0.07c2.01,0.84,2.66,2.74,2.66,5.4v3.94
				c0,1.24,0.04,2.15,0.44,3.1H131.5z M127.13-302.14v7.84h1.57c1.5,0,2.41-0.66,2.41-2.7v-2.52c0-1.82-0.62-2.63-2.04-2.63H127.13z
				"/>
			<path class="st3" d="M143.73-284.96h0.07l3.03-20.83h3.69l-3.94,25.54h-5.98l-3.94-25.54h4.05L143.73-284.96z"/>
			<path class="st3" d="M156.38-295.02h5.51v3.65h-5.51v7.48h6.93v3.65h-10.95v-25.54h10.95v3.65h-6.93V-295.02z"/>
			<path class="st3" d="M174.19-280.25c-0.22-0.66-0.37-1.06-0.37-3.14v-4.01c0-2.37-0.8-3.25-2.63-3.25h-1.39v10.4h-4.01v-25.54
				h6.06c4.16,0,5.95,1.93,5.95,5.87v2.01c0,2.63-0.84,4.31-2.63,5.14v0.07c2.01,0.84,2.66,2.74,2.66,5.4v3.94
				c0,1.24,0.04,2.15,0.44,3.1H174.19z M169.81-302.14v7.84h1.57c1.5,0,2.41-0.66,2.41-2.7v-2.52c0-1.82-0.62-2.63-2.04-2.63H169.81
				z"/>
		</g>
	</g>
	<g>
		<path class="st3" d="M-4.64-317.47c0.4-0.01,0.81-0.03,1.21-0.03c12.39,0,24.79,0,37.18,0c0.37,0,0.74,0,1.17,0
			c0,2.66,0,5.26,0,7.97c-10.48,0-20.96,0-31.5,0c0,2.64,0,5.18,0,7.83c10.49,0,20.97,0,31.5,0c0,7.97,0,15.84,0,23.83
			c-0.39,0-0.78,0-1.17,0c-12.52,0-25.04,0-37.56,0c-0.28,0-0.56,0.02-0.84,0.03c0-2.68,0-5.36,0-8.04
			c0.09,0.01,0.18,0.03,0.28,0.03c10.17,0,20.35,0,30.52,0c0.27,0,0.54-0.03,0.81-0.05c0-2.64,0-5.2,0-7.83c-10.59,0-21.1,0-31.61,0
			C-4.64-301.64-4.64-309.56-4.64-317.47z"/>
		<polygon class="st2" points="-4.64,-277.84 -21,-268.5 18.57,-268.53 34.92,-277.88 		"/>
		<path class="st1" d="M-21-308.12c0.4-0.01,0.81-0.03,1.21-0.03c12.39,0,24.79,0,37.18,0c0.37,0,0.74,0,1.17,0
			c0,2.66,0,5.26,0,7.97c-10.48,0-20.96,0-31.5,0c0,2.64,0,5.18,0,7.83c10.49,0,20.97,0,31.5,0c0,7.97,0,15.84,0,23.83
			c-0.39,0-0.78,0-1.17,0c-12.52,0-25.04,0-37.56,0c-0.28,0-0.56,0.02-0.84,0.03c0-2.68,0-5.36,0-8.04
			c0.09,0.01,0.18,0.03,0.28,0.03c10.17,0,20.35,0,30.52,0c0.27,0,0.54-0.03,0.81-0.05c0-2.64,0-5.2,0-7.83c-10.59,0-21.1,0-31.61,0
			C-21-292.3-21-300.21-21-308.12z"/>
		<polygon class="st0" points="-4.64,-317.47 -21,-308.12 18.57,-308.16 34.92,-317.5 		"/>
	</g>
</g>
<g>
	<path class="st1" d="M20.89,8.03C21.3,8.02,21.7,8,22.11,8C34.5,8,46.9,8,59.29,8c0.37,0,0.74,0,1.17,0c0,2.66,0,5.26,0,7.97
		c-10.48,0-20.96,0-31.5,0c0,2.64,0,5.18,0,7.83c10.49,0,20.97,0,31.5,0c0,7.97,0,15.84,0,23.83c-0.39,0-0.78,0-1.17,0
		c-12.52,0-25.04,0-37.56,0c-0.28,0-0.56,0.02-0.84,0.03c0-2.68,0-5.36,0-8.04c0.09,0.01,0.18,0.03,0.28,0.03
		c10.17,0,20.35,0,30.52,0c0.27,0,0.54-0.03,0.81-0.05c0-2.64,0-5.2,0-7.83c-10.59,0-21.1,0-31.61,0
		C20.89,23.86,20.89,15.94,20.89,8.03z"/>
	<polygon class="st2" points="20.89,47.66 4.54,57 44.11,56.97 60.46,47.62 	"/>
	<path class="st3" d="M4.54,17.38c0.4-0.01,0.81-0.03,1.21-0.03c12.39,0,24.79,0,37.18,0c0.37,0,0.74,0,1.17,0c0,2.66,0,5.26,0,7.97
		c-10.48,0-20.96,0-31.5,0c0,2.64,0,5.18,0,7.83c10.49,0,20.97,0,31.5,0c0,7.97,0,15.84,0,23.83c-0.39,0-0.78,0-1.17,0
		c-12.52,0-25.04,0-37.56,0c-0.28,0-0.56,0.02-0.84,0.03c0-2.68,0-5.36,0-8.04C4.63,48.98,4.72,49,4.81,49c10.17,0,20.35,0,30.52,0
		c0.27,0,0.54-0.03,0.81-0.05c0-2.64,0-5.2,0-7.83c-10.59,0-21.1,0-31.61,0C4.54,33.2,4.54,25.29,4.54,17.38z"/>
	<polygon class="st0" points="20.89,8.03 4.54,17.38 44.1,17.34 60.46,8 	"/>
</g>
</svg>
